# xmcd
#
# Track frame offsets: 
#        150
#        20608
#        35348
#        56108
#        76715
#        89070
#        105745
#        130898
#        146670
#        163505
#        176773
#        196563
#        222623
#
# Disc length: 3425 seconds
#
# Revision: 1
# Processed by: cddbd v1.5.2PL0 Copyright (c) Steve Scherf et al.
# Submitted via: ExactAudioCopy v0.95a5
#
DISCID=b50d5f0d
DTITLE=T.J. Wheeler - Blue and Beige
DYEAR=1990
DGENRE=Blues
TTITLE0=Blue and Beige
TTITLE1=Stranger Passing By
TTITLE2=Judge Boushay Blues
TTITLE3=Fools Paradise
TTITLE4=Last Fair Deal Gone Down
TTITLE5=Casey Jones
TTITLE6=Little&Low
TTITLE7=Dying Crap Shooters Blues
TTITLE8=Please Don't Talk About Me
TTITLE9=When I'm Gone
TTITLE10=Mississippi John
TTITLE11=Been Through Hell (But What the Hell)
TTITLE12=Compared to What
EXTD=
EXTT0=
EXTT1=
EXTT2=
EXTT3=
EXTT4=
EXTT5=
EXTT6=
EXTT7=
EXTT8=
EXTT9=
EXTT10=
EXTT11=
EXTT12=
PLAYORDER=
